<svg width="32" height="28" viewBox="0 0 32 28" fill="none" xmlns="http://www.w3.org/2000/svg">
<path fill-rule="evenodd" clip-rule="evenodd" d="M13.8667 0.630986C14.4821 0.221406 15.2307 0 16 0C16.7693 0 17.5179 0.221406 18.1333 0.630986L30.5778 8.91268C31.0194 9.20655 31.3778 9.58761 31.6246 10.0257C31.8715 10.4638 32 10.9468 32 11.4366V24.8451C32 25.6818 31.6254 26.4843 30.9586 27.0759C30.2918 27.6676 29.3874 28 28.4444 28H3.55556C2.61256 28 1.70819 27.6676 1.0414 27.0759C0.374602 26.4843 0 25.6818 0 24.8451V11.4366C0 10.9468 0.128516 10.4638 0.37537 10.0257C0.622224 9.58761 0.980636 9.20655 1.42222 8.91268L13.8667 0.630986ZM17.7778 10.6479C17.7778 10.2295 17.5905 9.82828 17.2571 9.53245C16.9237 9.23662 16.4715 9.07042 16 9.07042C15.5285 9.07042 15.0763 9.23662 14.7429 9.53245C14.4095 9.82828 14.2222 10.2295 14.2222 10.6479V20.1127C14.2222 20.531 14.4095 20.9323 14.7429 21.2281C15.0763 21.5239 15.5285 21.6901 16 21.6901C16.4715 21.6901 16.9237 21.5239 17.2571 21.2281C17.5905 20.9323 17.7778 20.531 17.7778 20.1127V10.6479ZM10.6667 15.3803C10.6667 14.9619 10.4794 14.5607 10.146 14.2648C9.81257 13.969 9.36038 13.8028 8.88889 13.8028C8.41739 13.8028 7.96521 13.969 7.63181 14.2648C7.29841 14.5607 7.11111 14.9619 7.11111 15.3803V20.1127C7.11111 20.531 7.29841 20.9323 7.63181 21.2281C7.96521 21.5239 8.41739 21.6901 8.88889 21.6901C9.36038 21.6901 9.81257 21.5239 10.146 21.2281C10.4794 20.9323 10.6667 20.531 10.6667 20.1127V15.3803ZM24.8889 18.5352C24.8889 18.1168 24.7016 17.7156 24.3682 17.4198C24.0348 17.1239 23.5826 16.9577 23.1111 16.9577C22.6396 16.9577 22.1874 17.1239 21.854 17.4198C21.5206 17.7156 21.3333 18.1168 21.3333 18.5352V20.1127C21.3333 20.531 21.5206 20.9323 21.854 21.2281C22.1874 21.5239 22.6396 21.6901 23.1111 21.6901C23.5826 21.6901 24.0348 21.5239 24.3682 21.2281C24.7016 20.9323 24.8889 20.531 24.8889 20.1127V18.5352Z" fill="#5681B1"/>
</svg>
