<svg width="34" height="33" viewBox="0 0 34 33" fill="none" xmlns="http://www.w3.org/2000/svg">
<path d="M28.58 12.596C26.9869 12.5959 25.434 12.1025 24.1399 11.1853C24.0675 11.3765 23.938 11.5416 23.7685 11.6586C23.599 11.7755 23.3974 11.8389 23.1906 11.8403H9.47223C9.20152 11.8403 8.9419 11.7341 8.75048 11.5451C8.55906 11.3562 8.45152 11.0998 8.45152 10.8326C8.45152 10.5653 8.55906 10.309 8.75048 10.1201C8.9419 9.93107 9.20152 9.82491 9.47223 9.82491H22.6599C21.8254 8.80977 21.2735 7.59734 21.0587 6.30731C20.8439 5.01727 20.9736 3.69423 21.435 2.4688C19.7758 1.99814 18.0577 1.76067 16.3314 1.76342C7.32873 1.76342 0 8.09169 0 15.871C0 23.6504 7.32873 29.9786 16.3314 29.9786C18.0158 29.9767 19.6918 29.7461 21.3125 29.2934L26.9571 32.8404C27.1112 32.938 27.289 32.9929 27.472 32.9994C27.655 33.0058 27.8363 32.9635 27.997 32.877C28.1578 32.7904 28.2919 32.6628 28.3855 32.5074C28.4791 32.3521 28.5287 32.1747 28.529 31.994V25.2123C29.8061 24.0027 30.8253 22.5532 31.5265 20.9489C32.2277 19.3447 32.5967 17.6182 32.6118 15.871C32.6073 14.4988 32.3728 13.1368 31.9177 11.8403C30.8777 12.3391 29.7363 12.5976 28.58 12.596ZM20.1591 21.9171H12.5038C12.233 21.9171 11.9734 21.811 11.782 21.622C11.5906 21.433 11.483 21.1767 11.483 20.9094C11.483 20.6422 11.5906 20.3859 11.782 20.1969C11.9734 20.0079 12.233 19.9018 12.5038 19.9018H20.1591C20.4298 19.9018 20.6894 20.0079 20.8809 20.1969C21.0723 20.3859 21.1798 20.6422 21.1798 20.9094C21.1798 21.1767 21.0723 21.433 20.8809 21.622C20.6894 21.811 20.4298 21.9171 20.1591 21.9171ZM23.4764 16.8787H9.18643C8.91572 16.8787 8.6561 16.7725 8.46468 16.5836C8.27326 16.3946 8.16572 16.1383 8.16572 15.871C8.16572 15.6038 8.27326 15.3475 8.46468 15.1585C8.6561 14.9695 8.91572 14.8633 9.18643 14.8633H23.4764C23.7471 14.8633 24.0068 14.9695 24.1982 15.1585C24.3896 15.3475 24.4971 15.6038 24.4971 15.871C24.4971 16.1383 24.3896 16.3946 24.1982 16.5836C24.0068 16.7725 23.7471 16.8787 23.4764 16.8787Z" fill="white"/>
<path d="M28.8964 10.0769C31.715 10.0769 34 7.82108 34 5.03843C34 2.25578 31.715 0 28.8964 0C26.0778 0 23.7928 2.25578 23.7928 5.03843C23.7928 7.82108 26.0778 10.0769 28.8964 10.0769Z" fill="white"/>
</svg>
