<svg width="32" height="33" viewBox="0 0 32 33" fill="none" xmlns="http://www.w3.org/2000/svg">
<path d="M16.72 0.832264C16.0708 0.294782 15.249 0 14.4 0C13.551 0 12.7292 0.294782 12.08 0.832264L1.28 9.78146C0.879135 10.1133 0.556894 10.5272 0.335804 10.9941C0.114714 11.4611 0.000108366 11.9698 0 12.4848V27.892C0 29.4103 1.2544 30.6425 2.8 30.6425H7.6C8.34261 30.6425 9.0548 30.3527 9.5799 29.8369C10.105 29.3211 10.4 28.6215 10.4 27.892V20.0336C10.4 19.7209 10.5264 19.4211 10.7515 19.2001C10.9765 18.979 11.2817 18.8548 11.6 18.8548H19.256C19.4054 17.8396 19.8407 16.8857 20.5128 16.1006C21.1848 15.3156 22.0669 14.7307 23.0594 14.412C24.0519 14.0932 25.1154 14.0534 26.1298 14.2969C27.1441 14.5404 28.069 15.0576 28.8 15.79V12.4848C28.7999 11.9698 28.6853 11.4611 28.4642 10.9941C28.2431 10.5272 27.9209 10.1133 27.52 9.78146L16.72 0.832264ZM28.8 19.6407C28.8 20.6827 28.3786 21.6822 27.6284 22.419C26.8783 23.1559 25.8609 23.5699 24.8 23.5699C23.7391 23.5699 22.7217 23.1559 21.9716 22.419C21.2214 21.6822 20.8 20.6827 20.8 19.6407C20.8 18.5986 21.2214 17.5991 21.9716 16.8623C22.7217 16.1254 23.7391 15.7114 24.8 15.7114C25.8609 15.7114 26.8783 16.1254 27.6284 16.8623C28.3786 17.5991 28.8 18.5986 28.8 19.6407ZM32 28.0885C32 30.534 29.9424 33 24.8 33C19.6576 33 17.6 30.5435 17.6 28.0885V27.9266C17.6 26.3863 18.8704 25.1416 20.4368 25.1416H29.1632C30.7312 25.1416 32 26.3879 32 27.9266V28.0885Z" fill="#5681B1"/>
</svg>
