<svg width="32" height="35" viewBox="0 0 32 35" fill="none" xmlns="http://www.w3.org/2000/svg">
<path d="M28.4444 3.5H21.0133C20.2667 1.47 18.3111 0 16 0C13.6889 0 11.7333 1.47 10.9867 3.5H3.55556C3.30667 3.5 3.07556 3.5175 2.84444 3.57C2.27825 3.68694 1.74941 3.93759 1.30345 4.30036C0.857495 4.66313 0.507791 5.12716 0.284445 5.6525C0.106667 6.055 0 6.51 0 7V31.5C0 31.9725 0.106667 32.445 0.284445 32.865C0.462222 33.285 0.728889 33.6525 1.04889 33.985C1.52889 34.4575 2.15111 34.8075 2.84444 34.9475C3.07556 34.9825 3.30667 35 3.55556 35H28.4444C30.4 35 32 33.425 32 31.5V7C32 5.075 30.4 3.5 28.4444 3.5ZM14.2222 23.0475L11.7156 25.5325L5.33333 19.25L11.7156 12.9675L14.2222 15.4525L10.3644 19.25L14.2222 23.0475ZM16 5.6875C15.2711 5.6875 14.6667 5.0925 14.6667 4.375C14.6667 3.6575 15.2711 3.0625 16 3.0625C16.7289 3.0625 17.3333 3.6575 17.3333 4.375C17.3333 5.0925 16.7289 5.6875 16 5.6875ZM20.2844 25.5325L17.7778 23.0475L21.6356 19.25L17.7778 15.4525L20.2844 12.9675L26.6667 19.25L20.2844 25.5325Z" fill="#5681B1"/>
</svg>
