<svg width="14" height="14" viewBox="0 0 14 14" fill="none" xmlns="http://www.w3.org/2000/svg">
<path fill-rule="evenodd" clip-rule="evenodd" d="M2.33333 0.466667C2.33333 0.208934 2.54227 0 2.8 0H11.2C11.4577 0 11.6667 0.208934 11.6667 0.466667V3.26667H13.5333C13.7911 3.26667 14 3.4756 14 3.73333V11.2C14 11.4577 13.7911 11.6667 13.5333 11.6667H11.6667V13.5333C11.6667 13.7911 11.4577 14 11.2 14H2.8C2.54227 14 2.33333 13.7911 2.33333 13.5333V11.6667H0.466667C0.208934 11.6667 0 11.4577 0 11.2V3.73333C0 3.4756 0.208934 3.26667 0.466667 3.26667H2.33333V0.466667ZM3.26667 3.26667H10.7333V0.933333H3.26667V3.26667ZM0.933333 4.2V10.7333H2.33333V8.4C2.33333 8.14227 2.54227 7.93333 2.8 7.93333H11.2C11.4577 7.93333 11.6667 8.14227 11.6667 8.4V10.7333H13.0667V4.2H0.933333ZM10.7333 10.7333V8.86667H3.26667V10.7333H10.7333ZM3.26667 11.6667V13.0667H10.7333V11.6667H3.26667ZM9.33333 6.06667C9.33333 5.80893 9.54227 5.6 9.8 5.6H11.2C11.4577 5.6 11.6667 5.80893 11.6667 6.06667C11.6667 6.3244 11.4577 6.53333 11.2 6.53333H9.8C9.54227 6.53333 9.33333 6.3244 9.33333 6.06667Z" fill="white"/>
</svg>
