<svg width="32" height="25" viewBox="0 0 32 25" fill="none" xmlns="http://www.w3.org/2000/svg">
<path d="M21.673 8.10254L26.733 2.64014C27.7305 1.66602 27.024 0 25.613 0H1.58693C0.17593 0 -0.530572 1.66602 0.466931 2.64014L9.59995 12.5V20.1133C9.59995 20.728 9.89645 21.3066 10.4 21.6758L14.3995 24.6055C15.4425 25.3691 16.823 24.9458 17.3605 23.9429C15.54 22.2354 14.4 19.8413 14.4 17.1875C14.4 12.8032 17.5025 9.12256 21.673 8.10254ZM24 9.375C19.5815 9.375 16 12.8726 16 17.1875C16 21.5024 19.5815 25 24 25C28.4185 25 32 21.5024 32 17.1875C32 12.8726 28.4185 9.375 24 9.375ZM24.8 21.0879V21.875C24.8 22.0908 24.621 22.2656 24.4 22.2656H23.6C23.379 22.2656 23.2 22.0908 23.2 21.875V21.0796C22.6355 21.0513 22.0865 20.8589 21.6315 20.5254C21.4365 20.3823 21.4265 20.0972 21.603 19.9326L22.1905 19.3853C22.329 19.2563 22.535 19.2505 22.697 19.3496C22.8905 19.4678 23.11 19.5312 23.338 19.5312H24.7435C25.0685 19.5312 25.3335 19.2422 25.3335 18.8872C25.3335 18.5967 25.153 18.3408 24.895 18.2656L22.645 17.6064C21.7155 17.334 21.066 16.4629 21.066 15.4878C21.066 14.2905 22.0185 13.3179 23.1995 13.2871V12.5C23.1995 12.2842 23.3785 12.1094 23.5995 12.1094H24.3995C24.6205 12.1094 24.7995 12.2842 24.7995 12.5V13.2954C25.364 13.3237 25.913 13.5156 26.368 13.8496C26.563 13.9927 26.573 14.2778 26.3965 14.4424L25.809 14.9897C25.6705 15.1187 25.4645 15.1245 25.3025 15.0254C25.109 14.9067 24.8895 14.8438 24.6615 14.8438H23.256C22.931 14.8438 22.666 15.1328 22.666 15.4878C22.666 15.7783 22.8465 16.0342 23.1045 16.1094L25.3545 16.7686C26.284 17.041 26.9335 17.9121 26.9335 18.8872C26.9335 20.085 25.9815 21.0571 24.8 21.0879Z" fill="white"/>
</svg>
