<svg width="17" height="17" viewBox="0 0 17 17" fill="none" xmlns="http://www.w3.org/2000/svg">
<path fill-rule="evenodd" clip-rule="evenodd" d="M11.4026 11.4026C11.7856 11.0196 12.4066 11.0196 12.7896 11.4026L16.7127 15.3257C17.0957 15.7087 17.0957 16.3297 16.7127 16.7127C16.3297 17.0958 15.7087 17.0958 15.3257 16.7127L11.4026 12.7897C11.0196 12.4067 11.0196 11.7857 11.4026 11.4026Z" fill="white"/>
<path fill-rule="evenodd" clip-rule="evenodd" d="M7.19231 1.96154C4.30343 1.96154 1.96154 4.30343 1.96154 7.19231C1.96154 10.0812 4.30343 12.4231 7.19231 12.4231C10.0812 12.4231 12.4231 10.0812 12.4231 7.19231C12.4231 4.30343 10.0812 1.96154 7.19231 1.96154ZM0 7.19231C0 3.22011 3.22011 0 7.19231 0C11.1645 0 14.3846 3.22011 14.3846 7.19231C14.3846 11.1645 11.1645 14.3846 7.19231 14.3846C3.22011 14.3846 0 11.1645 0 7.19231Z" fill="white"/>
</svg>
