<svg width="31" height="29" viewBox="0 0 31 29" fill="none" xmlns="http://www.w3.org/2000/svg">
<path d="M24.4125 19.9371H6.60687C6.39375 19.9371 6.21937 20.141 6.21937 20.3902L6.21453 23.1091C6.21453 23.3583 6.38891 23.5622 6.60203 23.5622H24.4125C24.6256 23.5622 24.8 23.3583 24.8 23.1091V20.3902C24.8 20.141 24.6256 19.9371 24.4125 19.9371ZM24.4125 25.3748H6.59234C6.37922 25.3748 6.20484 25.5787 6.20484 25.828L6.2 28.5469C6.2 28.7961 6.37437 29 6.5875 29H24.4125C24.6256 29 24.8 28.7961 24.8 28.5469V25.828C24.8 25.5787 24.6256 25.3748 24.4125 25.3748ZM24.4125 14.4993H6.61656C6.40344 14.4993 6.22906 14.7032 6.22906 14.9524L6.22422 17.6713C6.22422 17.9206 6.39859 18.1245 6.61172 18.1245H24.4125C24.6256 18.1245 24.8 17.9206 24.8 17.6713V14.9524C24.8 14.7032 24.6256 14.4993 24.4125 14.4993ZM29.5711 6.62586L16.3912 0.208168C16.108 0.0707393 15.8043 0 15.4976 0C15.1909 0 14.8872 0.0707393 14.6039 0.208168L1.42891 6.62586C0.566719 7.05069 0 8.03628 0 9.13517V28.5469C0 28.7961 0.174375 29 0.3875 29H4.2625C4.47563 29 4.65 28.7961 4.65 28.5469V14.4993C4.65 13.5024 5.35719 12.6867 6.22906 12.6867H24.7709C25.6428 12.6867 26.35 13.5024 26.35 14.4993V28.5469C26.35 28.7961 26.5244 29 26.7375 29H30.6125C30.8256 29 31 28.7961 31 28.5469V9.13517C31 8.03628 30.4333 7.05069 29.5711 6.62586Z" fill="#5681B1"/>
</svg>
