<svg width="34" height="34" viewBox="0 0 34 34" fill="none" xmlns="http://www.w3.org/2000/svg">
<path d="M17.5019 17.8095H3.2381C2.3793 17.8095 1.55568 18.1507 0.948416 18.7579C0.341155 19.3652 0 20.1888 0 21.0476V23.4762L0.00809542 23.8486C0.267143 29.2141 6.11676 30.7619 10.5238 30.7619C12.1914 30.7619 14.0679 30.5401 15.7679 29.9734C14.9795 28.4684 14.5689 26.7943 14.5714 25.0952C14.5714 22.2684 15.687 19.7006 17.5019 17.8095ZM17.8095 7.28571C17.8095 5.35342 17.0419 3.50027 15.6756 2.13394C14.3093 0.7676 12.4561 0 10.5238 0C8.59152 0 6.73837 0.7676 5.37203 2.13394C4.00569 3.50027 3.2381 5.35342 3.2381 7.28571C3.2381 9.21801 4.00569 11.0712 5.37203 12.4375C6.73837 13.8038 8.59152 14.5714 10.5238 14.5714C12.4561 14.5714 14.3093 13.8038 15.6756 12.4375C17.0419 11.0712 17.8095 9.21801 17.8095 7.28571ZM30.7619 8.90476C30.7619 7.40187 30.1649 5.96053 29.1022 4.89782C28.0395 3.83512 26.5981 3.2381 25.0952 3.2381C23.5923 3.2381 22.151 3.83512 21.0883 4.89782C20.0256 5.96053 19.4286 7.40187 19.4286 8.90476C19.4286 10.4077 20.0256 11.849 21.0883 12.9117C22.151 13.9744 23.5923 14.5714 25.0952 14.5714C26.5981 14.5714 28.0395 13.9744 29.1022 12.9117C30.1649 11.849 30.7619 10.4077 30.7619 8.90476ZM34 25.0952C34 27.4569 33.0618 29.7219 31.3919 31.3919C29.7219 33.0618 27.4569 34 25.0952 34C22.7335 34 20.4686 33.0618 18.7986 31.3919C17.1287 29.7219 16.1905 27.4569 16.1905 25.0952C16.1905 22.7335 17.1287 20.4686 18.7986 18.7986C20.4686 17.1287 22.7335 16.1905 25.0952 16.1905C27.4569 16.1905 29.7219 17.1287 31.3919 18.7986C33.0618 20.4686 34 22.7335 34 25.0952ZM30.5255 21.284C30.4503 21.2086 30.361 21.1488 30.2626 21.108C30.1643 21.0672 30.0589 21.0462 29.9524 21.0462C29.8459 21.0462 29.7405 21.0672 29.6421 21.108C29.5438 21.1488 29.4544 21.2086 29.3792 21.284L23.4762 27.1887L20.8112 24.5221C20.6592 24.3701 20.4531 24.2847 20.2381 24.2847C20.0231 24.2847 19.817 24.3701 19.665 24.5221C19.5129 24.6741 19.4275 24.8803 19.4275 25.0952C19.4275 25.3102 19.5129 25.5164 19.665 25.6684L22.903 28.9065C22.9782 28.9819 23.0676 29.0417 23.1659 29.0825C23.2643 29.1233 23.3697 29.1443 23.4762 29.1443C23.5827 29.1443 23.6881 29.1233 23.7865 29.0825C23.8848 29.0417 23.9741 28.9819 24.0493 28.9065L30.5255 22.4303C30.6009 22.3551 30.6607 22.2658 30.7015 22.1674C30.7423 22.0691 30.7634 21.9636 30.7634 21.8571C30.7634 21.7507 30.7423 21.6452 30.7015 21.5469C30.6607 21.4485 30.6009 21.3592 30.5255 21.284Z" fill="#5681B1"/>
</svg>
