<svg width="32" height="26" viewBox="0 0 32 26" fill="none" xmlns="http://www.w3.org/2000/svg">
<path d="M8.7256 0.212407C8.65592 0.145081 8.57313 0.0916619 8.48197 0.0552123C8.3908 0.0187628 8.29306 0 8.19435 0C8.09564 0 7.9979 0.0187628 7.90674 0.0552123C7.81557 0.0916619 7.73278 0.145081 7.6631 0.212407L3.6831 4.02247L2.26434 2.69127C2.19467 2.62394 2.11187 2.57052 2.02071 2.53407C1.92954 2.49762 1.8318 2.47886 1.73309 2.47886C1.63438 2.47886 1.53664 2.49762 1.44548 2.53407C1.35432 2.57052 1.27152 2.62394 1.20184 2.69127L0.220592 3.63731C0.150672 3.7044 0.0951939 3.78413 0.0573398 3.87191C0.0194857 3.95969 0 4.0538 0 4.14885C0 4.2439 0.0194857 4.33801 0.0573398 4.42579C0.0951939 4.51358 0.150672 4.5933 0.220592 4.66039L3.19497 7.51297C3.34344 7.64886 3.54044 7.72464 3.74528 7.72464C3.95012 7.72464 4.14713 7.64886 4.2956 7.51297L5.26997 6.57295L9.78248 2.22847C9.92307 2.09298 10.0025 1.90958 10.0036 1.71805C10.0046 1.52652 9.9272 1.34231 9.7881 1.20539L8.7256 0.212407ZM8.7256 9.79263C8.65592 9.72531 8.57313 9.67189 8.48197 9.63544C8.3908 9.59899 8.29306 9.58023 8.19435 9.58023C8.09564 9.58023 7.9979 9.59899 7.90674 9.63544C7.81557 9.67189 7.73278 9.72531 7.6631 9.79263L3.6831 13.6274L2.26434 12.2974C2.19467 12.23 2.11187 12.1766 2.02071 12.1402C1.92954 12.1037 1.8318 12.085 1.73309 12.085C1.63438 12.085 1.53664 12.1037 1.44548 12.1402C1.35432 12.1766 1.27152 12.23 1.20184 12.2974L0.220592 13.2416C0.150672 13.3087 0.0951939 13.3884 0.0573398 13.4762C0.0194857 13.564 0 13.6581 0 13.7531C0 13.8482 0.0194857 13.9423 0.0573398 14.0301C0.0951939 14.1179 0.150672 14.1976 0.220592 14.2647L3.18747 17.1233C3.33583 17.2591 3.53274 17.3349 3.73747 17.3349C3.9422 17.3349 4.13911 17.2591 4.28747 17.1233L5.26872 16.179L9.78123 11.8328C9.92129 11.6982 10.0005 11.5159 10.0015 11.3254C10.0026 11.1349 9.92542 10.9517 9.78685 10.8157L8.7256 9.79263ZM3.99997 20.2226C2.34434 20.2226 0.963092 21.5165 0.963092 23.1113C0.963092 24.7061 2.34559 26 3.99997 26C4.79562 26 5.55868 25.6957 6.12129 25.1539C6.6839 24.6122 6.99997 23.8774 6.99997 23.1113C6.99997 22.3452 6.6839 21.6104 6.12129 21.0687C5.55868 20.527 4.79562 20.2226 3.99997 20.2226ZM31 21.1855H13C12.7348 21.1855 12.4804 21.287 12.2929 21.4675C12.1053 21.6481 12 21.893 12 22.1484V24.0742C12 24.3296 12.1053 24.5745 12.2929 24.7551C12.4804 24.9357 12.7348 25.0371 13 25.0371H31C31.2652 25.0371 31.5196 24.9357 31.7071 24.7551C31.8946 24.5745 32 24.3296 32 24.0742V22.1484C32 21.893 31.8946 21.6481 31.7071 21.4675C31.5196 21.287 31.2652 21.1855 31 21.1855ZM31 1.92757H13C12.7348 1.92757 12.4804 2.02902 12.2929 2.20959C12.1053 2.39017 12 2.63509 12 2.89047V4.81626C12 5.07164 12.1053 5.31655 12.2929 5.49713C12.4804 5.67771 12.7348 5.77916 13 5.77916H31C31.2652 5.77916 31.5196 5.67771 31.7071 5.49713C31.8946 5.31655 32 5.07164 32 4.81626V2.89047C32 2.63509 31.8946 2.39017 31.7071 2.20959C31.5196 2.02902 31.2652 1.92757 31 1.92757ZM31 11.5565H13C12.7348 11.5565 12.4804 11.658 12.2929 11.8386C12.1053 12.0191 12 12.2641 12 12.5194V14.4452C12 14.7006 12.1053 14.9455 12.2929 15.1261C12.4804 15.3067 12.7348 15.4081 13 15.4081H31C31.2652 15.4081 31.5196 15.3067 31.7071 15.1261C31.8946 14.9455 32 14.7006 32 14.4452V12.5194C32 12.2641 31.8946 12.0191 31.7071 11.8386C31.5196 11.658 31.2652 11.5565 31 11.5565Z" fill="#5681B1"/>
</svg>
